<svg width="100" height="100" viewBox="0 0 100 100" fill="none" xmlns="http://www.w3.org/2000/svg">
<g clip-path="url(#clip0_215_3)">
<mask id="path-1-inside-1_215_3" fill="white">
<path d="M0 14C0 6.26801 6.26801 0 14 0H86C93.732 0 100 6.26801 100 14V100H0V14Z"/>
</mask>
<path d="M-6 14C-6 2.95431 2.95431 -6 14 -6H86C97.0457 -6 106 2.95431 106 14H94C94 9.58172 90.4183 6 86 6H14C9.58172 6 6 9.58172 6 14H-6ZM100 100H0H100ZM-6 100V14C-6 2.95431 2.95431 -6 14 -6V6C9.58172 6 6 9.58172 6 14V100H-6ZM86 -6C97.0457 -6 106 2.95431 106 14V100H94V14C94 9.58172 90.4183 6 86 6V-6Z" fill="url(#paint0_linear_215_3)" mask="url(#path-1-inside-1_215_3)"/>
<rect x="32" y="11" width="36" height="8" rx="4" fill="white"/>
</g>
<defs>
<linearGradient id="paint0_linear_215_3" x1="50" y1="0" x2="50" y2="100" gradientUnits="userSpaceOnUse">
<stop offset="0.286458" stop-color="white"/>
<stop offset="1" stop-color="white" stop-opacity="0"/>
</linearGradient>
<clipPath id="clip0_215_3">
<rect width="100" height="100" fill="white"/>
</clipPath>
</defs>
</svg>
