<svg width="108" height="56" viewBox="0 0 108 56" fill="none" xmlns="http://www.w3.org/2000/svg">
<rect width="108" height="56" rx="28" fill="black"/>
<path d="M43 27C42.8687 28.8575 43.1843 31.1511 42.1013 32.2656C40.6737 33.7031 39 35.1568 39 36.772C39 37.9511 39.9575 38.5 41.5 38.5H54V32.033V29.3495V27H52.0994H49.382H43Z" fill="white"/>
<path d="M49 41C49.2133 43.2613 51.2104 45 54 45V41H49Z" fill="white"/>
<path d="M65.5 27C65.6356 28.8367 65.678 31.1047 66.7966 32.2067C68.2712 33.6282 70 35.0657 70 36.6628C70 37.8287 69.0339 38.5954 67.4407 38.5954L54 38.4884V31.9768V29.3232V27H56.4696H59.2763H65.5Z" fill="white"/>
<path d="M59 41C58.7797 43.236 56.8814 45 54 45V41H59Z" fill="white"/>
<path d="M65.5 27C65.3675 20.7178 63.5752 16.3988 59.1686 14.8282C58.5391 12.6851 56.3161 11 53.8809 11C51.4456 11 49.7227 12.6851 49.0932 14.8282C44.6866 16.3988 43.1325 20.7178 43 27H49.8883H53.1719H54.381H55.5901H58.3736H65.5Z" fill="white"/>
</svg>
