<svg width="75" height="84" viewBox="0 0 75 84" fill="none" xmlns="http://www.w3.org/2000/svg">
<path d="M23.75 79C23.75 81.7614 21.5114 84 18.75 84H5.5C2.73858 84 0.5 81.7614 0.5 79V37.5336C0.5 35.9138 1.15492 34.3628 2.31587 33.2332L34.0132 2.39254C35.9542 0.504041 39.0458 0.504044 40.9868 2.39254L72.9868 33.5277C73.9542 34.469 74.5 35.7615 74.5 37.1113V79C74.5 81.7614 72.2614 84 69.5 84H56.25C53.4886 84 51.25 81.7614 51.25 79V55.25C51.25 47.9322 45.3178 42 38 42V42V42C30.1299 42 23.75 48.3799 23.75 56.25V79Z" fill="white"/>
</svg>
