<svg width="109" height="57" viewBox="0 0 109 57" fill="none" xmlns="http://www.w3.org/2000/svg">
<rect x="0.283203" y="0.313232" width="108" height="56" rx="28" fill="#FF3B30"/>
<path d="M54.25 10.8621C51.793 10.8621 50.083 12.572 49.4521 14.7468C48.5723 15.0457 47.8086 15.4607 47.1611 15.9919L69.4902 38.3542C69.7725 38.0388 69.9053 37.6238 69.9053 37.1423C69.9053 35.4822 68.2285 33.988 66.7842 32.5105C65.6885 31.365 65.3896 29.0076 65.2734 27.0984C65.1406 20.7234 63.4639 16.3406 59.0479 14.7468C58.417 12.572 56.6904 10.8621 54.25 10.8621ZM38.9434 14.2322L68.7764 44.0154C69.2744 44.53 70.0879 44.53 70.5859 44.0154C71.0674 43.5173 71.084 42.7205 70.5859 42.2058L40.7695 12.4226C40.2715 11.9246 39.458 11.9246 38.9434 12.4226C38.4619 12.9041 38.4619 13.7507 38.9434 14.2322ZM41.085 39.1511H61.123L43.8076 21.8191C43.4424 23.3962 43.2598 25.1394 43.2266 27.0984C43.0938 29.0076 42.8115 31.365 41.7158 32.5105C40.2715 33.988 38.5781 35.4822 38.5781 37.1423C38.5781 38.3542 39.5244 39.1511 41.085 39.1511ZM54.25 45.8083C57.0557 45.8083 59.1143 43.7498 59.3467 41.4255H49.1533C49.3691 43.7498 51.4277 45.8083 54.25 45.8083Z" fill="white"/>
</svg>
